<mxfile host="app.diagrams.net" modified="2024-01-24T11:24:03.090Z" agent="Mozilla/5.0 (Windows NT 10.0; Win64; x64) AppleWebKit/537.36 (KHTML, like Gecko) Chrome/120.0.0.0 Safari/537.36" etag="YRQnd-T35bziZ9KvZPHa" version="23.0.0" type="device">
  <diagram name="PÃ¡gina-1" id="DKQ-JE0I7ug-w8LpSFDZ">
    <mxGraphModel dx="880" dy="494" grid="1" gridSize="10" guides="1" tooltips="1" connect="1" arrows="1" fold="1" page="1" pageScale="1" pageWidth="827" pageHeight="1169" math="0" shadow="0">
      <root>
        <mxCell id="0" />
        <mxCell id="1" parent="0" />
        <mxCell id="5-9p28-RhtZvzZYxYWKI-1" value="Region" style="points=[[0,0],[0.25,0],[0.5,0],[0.75,0],[1,0],[1,0.25],[1,0.5],[1,0.75],[1,1],[0.75,1],[0.5,1],[0.25,1],[0,1],[0,0.75],[0,0.5],[0,0.25]];outlineConnect=0;gradientColor=none;html=1;whiteSpace=wrap;fontSize=12;fontStyle=0;container=1;pointerEvents=0;collapsible=0;recursiveResize=0;shape=mxgraph.aws4.group;grIcon=mxgraph.aws4.group_region;strokeColor=#00A4A6;fillColor=none;verticalAlign=top;align=left;spacingLeft=30;fontColor=#147EBA;dashed=1;" vertex="1" parent="1">
          <mxGeometry x="50" y="40" width="750" height="420" as="geometry" />
        </mxCell>
        <mxCell id="5-9p28-RhtZvzZYxYWKI-2" value="VPC" style="points=[[0,0],[0.25,0],[0.5,0],[0.75,0],[1,0],[1,0.25],[1,0.5],[1,0.75],[1,1],[0.75,1],[0.5,1],[0.25,1],[0,1],[0,0.75],[0,0.5],[0,0.25]];outlineConnect=0;gradientColor=none;html=1;whiteSpace=wrap;fontSize=12;fontStyle=0;container=1;pointerEvents=0;collapsible=0;recursiveResize=0;shape=mxgraph.aws4.group;grIcon=mxgraph.aws4.group_vpc2;strokeColor=#8C4FFF;fillColor=none;verticalAlign=top;align=left;spacingLeft=30;fontColor=#AAB7B8;dashed=0;" vertex="1" parent="1">
          <mxGeometry x="70" y="70" width="710" height="370" as="geometry" />
        </mxCell>
        <mxCell id="5-9p28-RhtZvzZYxYWKI-3" value="Subred-Proxy" style="points=[[0,0],[0.25,0],[0.5,0],[0.75,0],[1,0],[1,0.25],[1,0.5],[1,0.75],[1,1],[0.75,1],[0.5,1],[0.25,1],[0,1],[0,0.75],[0,0.5],[0,0.25]];outlineConnect=0;gradientColor=none;html=1;whiteSpace=wrap;fontSize=12;fontStyle=0;container=1;pointerEvents=0;collapsible=0;recursiveResize=0;shape=mxgraph.aws4.group;grIcon=mxgraph.aws4.group_security_group;grStroke=0;strokeColor=#7AA116;fillColor=#F2F6E8;verticalAlign=top;align=left;spacingLeft=30;fontColor=#248814;dashed=0;" vertex="1" parent="5-9p28-RhtZvzZYxYWKI-2">
          <mxGeometry x="30" y="30" width="320" height="170" as="geometry" />
        </mxCell>
        <mxCell id="5-9p28-RhtZvzZYxYWKI-6" value="" style="sketch=0;points=[[0,0,0],[0.25,0,0],[0.5,0,0],[0.75,0,0],[1,0,0],[0,1,0],[0.25,1,0],[0.5,1,0],[0.75,1,0],[1,1,0],[0,0.25,0],[0,0.5,0],[0,0.75,0],[1,0.25,0],[1,0.5,0],[1,0.75,0]];outlineConnect=0;fontColor=#232F3E;fillColor=#ED7100;strokeColor=#ffffff;dashed=0;verticalLabelPosition=bottom;verticalAlign=top;align=center;html=1;fontSize=12;fontStyle=0;aspect=fixed;shape=mxgraph.aws4.resourceIcon;resIcon=mxgraph.aws4.compute;" vertex="1" parent="5-9p28-RhtZvzZYxYWKI-3">
          <mxGeometry x="50" y="50" width="60" height="60" as="geometry" />
        </mxCell>
        <mxCell id="5-9p28-RhtZvzZYxYWKI-7" value="" style="sketch=0;points=[[0,0,0],[0.25,0,0],[0.5,0,0],[0.75,0,0],[1,0,0],[0,1,0],[0.25,1,0],[0.5,1,0],[0.75,1,0],[1,1,0],[0,0.25,0],[0,0.5,0],[0,0.75,0],[1,0.25,0],[1,0.5,0],[1,0.75,0]];outlineConnect=0;fontColor=#232F3E;fillColor=#ED7100;strokeColor=#ffffff;dashed=0;verticalLabelPosition=bottom;verticalAlign=top;align=center;html=1;fontSize=12;fontStyle=0;aspect=fixed;shape=mxgraph.aws4.resourceIcon;resIcon=mxgraph.aws4.compute;" vertex="1" parent="5-9p28-RhtZvzZYxYWKI-3">
          <mxGeometry x="210" y="50" width="60" height="60" as="geometry" />
        </mxCell>
        <mxCell id="5-9p28-RhtZvzZYxYWKI-18" value="&lt;font style=&quot;font-size: 10px;&quot;&gt;CIDR: 10.100.20.0/24&lt;/font&gt;" style="text;html=1;strokeColor=none;fillColor=none;align=center;verticalAlign=middle;whiteSpace=wrap;rounded=0;" vertex="1" parent="5-9p28-RhtZvzZYxYWKI-3">
          <mxGeometry x="250" y="140" width="60" height="30" as="geometry" />
        </mxCell>
        <mxCell id="5-9p28-RhtZvzZYxYWKI-21" value="&lt;font style=&quot;font-size: 10px;&quot;&gt;FQDN: salmonesmatrix.duckdns.org&lt;/font&gt;" style="text;html=1;strokeColor=none;fillColor=none;align=center;verticalAlign=middle;whiteSpace=wrap;rounded=0;" vertex="1" parent="5-9p28-RhtZvzZYxYWKI-3">
          <mxGeometry x="50" y="110" width="60" height="30" as="geometry" />
        </mxCell>
        <mxCell id="5-9p28-RhtZvzZYxYWKI-22" value="&lt;font style=&quot;font-size: 10px;&quot;&gt;FQDN: salmonesturn.duckdns.org&lt;/font&gt;" style="text;html=1;strokeColor=none;fillColor=none;align=center;verticalAlign=middle;whiteSpace=wrap;rounded=0;" vertex="1" parent="5-9p28-RhtZvzZYxYWKI-3">
          <mxGeometry x="210" y="110" width="60" height="30" as="geometry" />
        </mxCell>
        <mxCell id="5-9p28-RhtZvzZYxYWKI-30" value="&lt;font style=&quot;font-size: 10px;&quot;&gt;Coturn&lt;/font&gt;" style="text;html=1;strokeColor=none;fillColor=none;align=center;verticalAlign=middle;whiteSpace=wrap;rounded=0;" vertex="1" parent="5-9p28-RhtZvzZYxYWKI-3">
          <mxGeometry x="210" y="20" width="60" height="30" as="geometry" />
        </mxCell>
        <mxCell id="5-9p28-RhtZvzZYxYWKI-31" value="&lt;span style=&quot;font-size: 10px;&quot;&gt;Nginx&lt;/span&gt;" style="text;html=1;strokeColor=none;fillColor=none;align=center;verticalAlign=middle;whiteSpace=wrap;rounded=0;" vertex="1" parent="5-9p28-RhtZvzZYxYWKI-3">
          <mxGeometry x="50" y="20" width="60" height="30" as="geometry" />
        </mxCell>
        <mxCell id="5-9p28-RhtZvzZYxYWKI-4" value="Subred-privada1" style="points=[[0,0],[0.25,0],[0.5,0],[0.75,0],[1,0],[1,0.25],[1,0.5],[1,0.75],[1,1],[0.75,1],[0.5,1],[0.25,1],[0,1],[0,0.75],[0,0.5],[0,0.25]];outlineConnect=0;gradientColor=none;html=1;whiteSpace=wrap;fontSize=12;fontStyle=0;container=1;pointerEvents=0;collapsible=0;recursiveResize=0;shape=mxgraph.aws4.group;grIcon=mxgraph.aws4.group_security_group;grStroke=0;strokeColor=#00A4A6;fillColor=#E6F6F7;verticalAlign=top;align=left;spacingLeft=30;fontColor=#147EBA;dashed=0;" vertex="1" parent="5-9p28-RhtZvzZYxYWKI-2">
          <mxGeometry x="30" y="200" width="320" height="160" as="geometry" />
        </mxCell>
        <mxCell id="5-9p28-RhtZvzZYxYWKI-8" value="" style="sketch=0;points=[[0,0,0],[0.25,0,0],[0.5,0,0],[0.75,0,0],[1,0,0],[0,1,0],[0.25,1,0],[0.5,1,0],[0.75,1,0],[1,1,0],[0,0.25,0],[0,0.5,0],[0,0.75,0],[1,0.25,0],[1,0.5,0],[1,0.75,0]];outlineConnect=0;fontColor=#232F3E;fillColor=#ED7100;strokeColor=#ffffff;dashed=0;verticalLabelPosition=bottom;verticalAlign=top;align=center;html=1;fontSize=12;fontStyle=0;aspect=fixed;shape=mxgraph.aws4.resourceIcon;resIcon=mxgraph.aws4.compute;" vertex="1" parent="5-9p28-RhtZvzZYxYWKI-4">
          <mxGeometry x="50" y="51" width="58" height="58" as="geometry" />
        </mxCell>
        <mxCell id="5-9p28-RhtZvzZYxYWKI-16" value="" style="sketch=0;points=[[0,0,0],[0.25,0,0],[0.5,0,0],[0.75,0,0],[1,0,0],[0,1,0],[0.25,1,0],[0.5,1,0],[0.75,1,0],[1,1,0],[0,0.25,0],[0,0.5,0],[0,0.75,0],[1,0.25,0],[1,0.5,0],[1,0.75,0]];outlineConnect=0;fontColor=#232F3E;fillColor=#ED7100;strokeColor=#ffffff;dashed=0;verticalLabelPosition=bottom;verticalAlign=top;align=center;html=1;fontSize=12;fontStyle=0;aspect=fixed;shape=mxgraph.aws4.resourceIcon;resIcon=mxgraph.aws4.compute;" vertex="1" parent="5-9p28-RhtZvzZYxYWKI-4">
          <mxGeometry x="210" y="51" width="58" height="58" as="geometry" />
        </mxCell>
        <mxCell id="5-9p28-RhtZvzZYxYWKI-20" value="&lt;font style=&quot;font-size: 10px;&quot;&gt;CIDR: 10.100.21.0/24&lt;/font&gt;" style="text;html=1;strokeColor=none;fillColor=none;align=center;verticalAlign=middle;whiteSpace=wrap;rounded=0;" vertex="1" parent="5-9p28-RhtZvzZYxYWKI-4">
          <mxGeometry x="270" y="139" width="44" height="20" as="geometry" />
        </mxCell>
        <mxCell id="5-9p28-RhtZvzZYxYWKI-23" value="&lt;font style=&quot;font-size: 10px;&quot;&gt;IP: 10.100.21.147&lt;/font&gt;" style="text;html=1;strokeColor=none;fillColor=none;align=center;verticalAlign=middle;whiteSpace=wrap;rounded=0;" vertex="1" parent="5-9p28-RhtZvzZYxYWKI-4">
          <mxGeometry x="49" y="110" width="60" height="30" as="geometry" />
        </mxCell>
        <mxCell id="5-9p28-RhtZvzZYxYWKI-24" value="&lt;font style=&quot;font-size: 10px;&quot;&gt;IP: 10.100.21.186&lt;/font&gt;" style="text;html=1;strokeColor=none;fillColor=none;align=center;verticalAlign=middle;whiteSpace=wrap;rounded=0;" vertex="1" parent="5-9p28-RhtZvzZYxYWKI-4">
          <mxGeometry x="209" y="109" width="60" height="30" as="geometry" />
        </mxCell>
        <mxCell id="5-9p28-RhtZvzZYxYWKI-27" value="&lt;font style=&quot;font-size: 10px;&quot;&gt;Matrix-Synapse&lt;/font&gt;" style="text;html=1;strokeColor=none;fillColor=none;align=center;verticalAlign=middle;whiteSpace=wrap;rounded=0;" vertex="1" parent="5-9p28-RhtZvzZYxYWKI-4">
          <mxGeometry x="33" y="21" width="92" height="30" as="geometry" />
        </mxCell>
        <mxCell id="5-9p28-RhtZvzZYxYWKI-28" value="&lt;font style=&quot;font-size: 10px;&quot;&gt;Postgre&lt;/font&gt;" style="text;html=1;strokeColor=none;fillColor=none;align=center;verticalAlign=middle;whiteSpace=wrap;rounded=0;" vertex="1" parent="5-9p28-RhtZvzZYxYWKI-4">
          <mxGeometry x="210" y="21" width="60" height="30" as="geometry" />
        </mxCell>
        <mxCell id="5-9p28-RhtZvzZYxYWKI-5" value="Subred-Ticketing" style="points=[[0,0],[0.25,0],[0.5,0],[0.75,0],[1,0],[1,0.25],[1,0.5],[1,0.75],[1,1],[0.75,1],[0.5,1],[0.25,1],[0,1],[0,0.75],[0,0.5],[0,0.25]];outlineConnect=0;gradientColor=none;html=1;whiteSpace=wrap;fontSize=12;fontStyle=0;container=1;pointerEvents=0;collapsible=0;recursiveResize=0;shape=mxgraph.aws4.group;grIcon=mxgraph.aws4.group_security_group;grStroke=0;strokeColor=#7AA116;fillColor=#F2F6E8;verticalAlign=top;align=left;spacingLeft=30;fontColor=#248814;dashed=0;" vertex="1" parent="5-9p28-RhtZvzZYxYWKI-2">
          <mxGeometry x="360" y="30" width="330" height="330" as="geometry" />
        </mxCell>
        <mxCell id="5-9p28-RhtZvzZYxYWKI-17" value="" style="sketch=0;points=[[0,0,0],[0.25,0,0],[0.5,0,0],[0.75,0,0],[1,0,0],[0,1,0],[0.25,1,0],[0.5,1,0],[0.75,1,0],[1,1,0],[0,0.25,0],[0,0.5,0],[0,0.75,0],[1,0.25,0],[1,0.5,0],[1,0.75,0]];outlineConnect=0;fontColor=#232F3E;fillColor=#ED7100;strokeColor=#ffffff;dashed=0;verticalLabelPosition=bottom;verticalAlign=top;align=center;html=1;fontSize=12;fontStyle=0;aspect=fixed;shape=mxgraph.aws4.resourceIcon;resIcon=mxgraph.aws4.compute;" vertex="1" parent="5-9p28-RhtZvzZYxYWKI-5">
          <mxGeometry x="126" y="60" width="78" height="78" as="geometry" />
        </mxCell>
        <mxCell id="5-9p28-RhtZvzZYxYWKI-19" value="&lt;font style=&quot;font-size: 10px;&quot;&gt;CIDR: 10.100.30.0/24&lt;/font&gt;" style="text;html=1;strokeColor=none;fillColor=none;align=center;verticalAlign=middle;whiteSpace=wrap;rounded=0;" vertex="1" parent="5-9p28-RhtZvzZYxYWKI-5">
          <mxGeometry x="260" y="300" width="60" height="30" as="geometry" />
        </mxCell>
        <mxCell id="5-9p28-RhtZvzZYxYWKI-26" value="&lt;font style=&quot;font-size: 10px;&quot;&gt;FQDN:&lt;br&gt;salmonesticketing.duckdns.org&lt;/font&gt;" style="text;html=1;strokeColor=none;fillColor=none;align=center;verticalAlign=middle;whiteSpace=wrap;rounded=0;" vertex="1" parent="5-9p28-RhtZvzZYxYWKI-5">
          <mxGeometry x="135" y="150" width="60" height="30" as="geometry" />
        </mxCell>
        <mxCell id="5-9p28-RhtZvzZYxYWKI-29" value="&lt;font style=&quot;font-size: 10px;&quot;&gt;Wordpress + mysql&lt;/font&gt;" style="text;html=1;strokeColor=none;fillColor=none;align=center;verticalAlign=middle;whiteSpace=wrap;rounded=0;" vertex="1" parent="5-9p28-RhtZvzZYxYWKI-5">
          <mxGeometry x="135" y="30" width="60" height="30" as="geometry" />
        </mxCell>
      </root>
    </mxGraphModel>
  </diagram>
</mxfile>
